<mxfile host="app.diagrams.net" agent="Mozilla/5.0 (Windows NT 10.0; Win64; x64) AppleWebKit/537.36 (KHTML, like Gecko) Chrome/134.0.0.0 Safari/537.36" version="26.1.3">
  <diagram name="Σελίδα-1" id="tUFHNK6FRsGTnAo6xCgG">
    <mxGraphModel dx="1749" dy="1449" grid="1" gridSize="10" guides="1" tooltips="1" connect="1" arrows="1" fold="1" page="0" pageScale="1" pageWidth="827" pageHeight="1169" math="0" shadow="0">
      <root>
        <mxCell id="0" />
        <mxCell id="1" parent="0" />
        <mxCell id="kR6YiugQy_GHJ83owY4M-6" value="Calculate and Display Route - Activity Diagram" style="shape=umlFrame;whiteSpace=wrap;html=1;pointerEvents=0;recursiveResize=0;container=1;collapsible=0;width=257;height=34;" parent="1" vertex="1">
          <mxGeometry x="-602" y="-247" width="1162" height="1887" as="geometry" />
        </mxCell>
        <mxCell id="XiwXZa3TAM8R3-ZATZ7q-5" style="edgeStyle=none;curved=1;rounded=0;orthogonalLoop=1;jettySize=auto;html=1;exitX=0.5;exitY=1;exitDx=0;exitDy=0;entryX=0.5;entryY=0;entryDx=0;entryDy=0;fontSize=12;startSize=8;endSize=8;" edge="1" parent="kR6YiugQy_GHJ83owY4M-6" source="kR6YiugQy_GHJ83owY4M-37" target="vHgR3sTV_HwAixPCrvOR-47">
          <mxGeometry relative="1" as="geometry" />
        </mxCell>
        <mxCell id="kR6YiugQy_GHJ83owY4M-37" value="" style="ellipse;fillColor=#000000;strokeColor=none;" parent="kR6YiugQy_GHJ83owY4M-6" vertex="1">
          <mxGeometry x="647.25" y="49" width="20" height="20" as="geometry" />
        </mxCell>
        <mxCell id="S0jq40NQi5oTpdrNzM0y-1" style="edgeStyle=orthogonalEdgeStyle;rounded=0;orthogonalLoop=1;jettySize=auto;html=1;exitX=0.5;exitY=1;exitDx=0;exitDy=0;entryX=0.5;entryY=0;entryDx=0;entryDy=0;" parent="kR6YiugQy_GHJ83owY4M-6" source="kR6YiugQy_GHJ83owY4M-66" target="kR6YiugQy_GHJ83owY4M-189" edge="1">
          <mxGeometry relative="1" as="geometry" />
        </mxCell>
        <mxCell id="kR6YiugQy_GHJ83owY4M-66" value="Select&lt;div&gt;destination&lt;/div&gt;" style="html=1;align=center;verticalAlign=top;rounded=1;absoluteArcSize=1;arcSize=10;dashed=0;whiteSpace=wrap;" parent="kR6YiugQy_GHJ83owY4M-6" vertex="1">
          <mxGeometry x="689.5" y="277" width="87" height="43" as="geometry" />
        </mxCell>
        <mxCell id="XiwXZa3TAM8R3-ZATZ7q-4" style="edgeStyle=none;curved=1;rounded=0;orthogonalLoop=1;jettySize=auto;html=1;exitX=0.5;exitY=1;exitDx=0;exitDy=0;entryX=0.5;entryY=0;entryDx=0;entryDy=0;fontSize=12;startSize=8;endSize=8;" edge="1" parent="kR6YiugQy_GHJ83owY4M-6" source="kR6YiugQy_GHJ83owY4M-68" target="XiwXZa3TAM8R3-ZATZ7q-1">
          <mxGeometry relative="1" as="geometry" />
        </mxCell>
        <mxCell id="kR6YiugQy_GHJ83owY4M-68" value="Start Navigation" style="html=1;align=center;verticalAlign=top;rounded=1;absoluteArcSize=1;arcSize=10;dashed=0;whiteSpace=wrap;" parent="kR6YiugQy_GHJ83owY4M-6" vertex="1">
          <mxGeometry x="412" y="1647" width="140" height="28" as="geometry" />
        </mxCell>
        <mxCell id="kR6YiugQy_GHJ83owY4M-95" style="edgeStyle=none;curved=1;rounded=0;orthogonalLoop=1;jettySize=auto;html=1;exitX=1;exitY=0.5;exitDx=0;exitDy=0;entryX=0.5;entryY=0;entryDx=0;entryDy=0;fontSize=12;startSize=8;endSize=8;" parent="kR6YiugQy_GHJ83owY4M-6" source="kR6YiugQy_GHJ83owY4M-79" target="kR6YiugQy_GHJ83owY4M-93" edge="1">
          <mxGeometry relative="1" as="geometry">
            <Array as="points">
              <mxPoint x="833.5" y="756" />
            </Array>
          </mxGeometry>
        </mxCell>
        <mxCell id="vHgR3sTV_HwAixPCrvOR-37" style="edgeStyle=orthogonalEdgeStyle;rounded=0;orthogonalLoop=1;jettySize=auto;html=1;exitX=0;exitY=0.5;exitDx=0;exitDy=0;entryX=0.5;entryY=0;entryDx=0;entryDy=0;curved=1;" parent="kR6YiugQy_GHJ83owY4M-6" source="kR6YiugQy_GHJ83owY4M-79" target="vHgR3sTV_HwAixPCrvOR-34" edge="1">
          <mxGeometry relative="1" as="geometry" />
        </mxCell>
        <mxCell id="kR6YiugQy_GHJ83owY4M-79" value="" style="rhombus;" parent="kR6YiugQy_GHJ83owY4M-6" vertex="1">
          <mxGeometry x="625.5" y="718" width="74" height="75" as="geometry" />
        </mxCell>
        <mxCell id="kR6YiugQy_GHJ83owY4M-84" value="No" style="text;html=1;align=center;verticalAlign=middle;whiteSpace=wrap;rounded=0;" parent="kR6YiugQy_GHJ83owY4M-6" vertex="1">
          <mxGeometry x="581" y="730" width="60" height="30" as="geometry" />
        </mxCell>
        <mxCell id="kR6YiugQy_GHJ83owY4M-91" value="Add stops to route?" style="text;html=1;align=center;verticalAlign=middle;whiteSpace=wrap;rounded=0;" parent="kR6YiugQy_GHJ83owY4M-6" vertex="1">
          <mxGeometry x="638.5" y="742" width="48" height="29" as="geometry" />
        </mxCell>
        <mxCell id="kR6YiugQy_GHJ83owY4M-103" style="edgeStyle=none;curved=1;rounded=0;orthogonalLoop=1;jettySize=auto;html=1;exitX=0.5;exitY=1;exitDx=0;exitDy=0;entryX=0.5;entryY=0;entryDx=0;entryDy=0;fontSize=12;startSize=8;endSize=8;" parent="kR6YiugQy_GHJ83owY4M-6" source="kR6YiugQy_GHJ83owY4M-93" target="kR6YiugQy_GHJ83owY4M-100" edge="1">
          <mxGeometry relative="1" as="geometry" />
        </mxCell>
        <mxCell id="kR6YiugQy_GHJ83owY4M-93" value="Add new stop&lt;div&gt;to the route&lt;/div&gt;" style="html=1;align=center;verticalAlign=top;rounded=1;absoluteArcSize=1;arcSize=10;dashed=0;whiteSpace=wrap;" parent="kR6YiugQy_GHJ83owY4M-6" vertex="1">
          <mxGeometry x="763.5" y="858" width="140" height="40" as="geometry" />
        </mxCell>
        <mxCell id="kR6YiugQy_GHJ83owY4M-96" value="Yes" style="text;html=1;align=center;verticalAlign=middle;whiteSpace=wrap;rounded=0;" parent="kR6YiugQy_GHJ83owY4M-6" vertex="1">
          <mxGeometry x="682" y="730" width="60" height="30" as="geometry" />
        </mxCell>
        <mxCell id="kR6YiugQy_GHJ83owY4M-102" style="edgeStyle=none;curved=1;rounded=0;orthogonalLoop=1;jettySize=auto;html=1;exitX=0;exitY=0.5;exitDx=0;exitDy=0;entryX=0.5;entryY=1;entryDx=0;entryDy=0;fontSize=12;startSize=8;endSize=8;" parent="kR6YiugQy_GHJ83owY4M-6" source="kR6YiugQy_GHJ83owY4M-100" target="kR6YiugQy_GHJ83owY4M-79" edge="1">
          <mxGeometry relative="1" as="geometry">
            <Array as="points">
              <mxPoint x="665.5" y="959" />
            </Array>
          </mxGeometry>
        </mxCell>
        <mxCell id="kR6YiugQy_GHJ83owY4M-113" style="edgeStyle=orthogonalEdgeStyle;rounded=0;orthogonalLoop=1;jettySize=auto;html=1;exitX=0.5;exitY=1;exitDx=0;exitDy=0;fontSize=12;startSize=8;endSize=8;entryX=0.5;entryY=0;entryDx=0;entryDy=0;" parent="kR6YiugQy_GHJ83owY4M-6" source="kR6YiugQy_GHJ83owY4M-100" target="kR6YiugQy_GHJ83owY4M-109" edge="1">
          <mxGeometry relative="1" as="geometry">
            <mxPoint x="912.5" y="1083" as="targetPoint" />
          </mxGeometry>
        </mxCell>
        <mxCell id="kR6YiugQy_GHJ83owY4M-100" value="" style="rhombus;" parent="kR6YiugQy_GHJ83owY4M-6" vertex="1">
          <mxGeometry x="796.5" y="927" width="74" height="75" as="geometry" />
        </mxCell>
        <mxCell id="kR6YiugQy_GHJ83owY4M-101" value="Add more stops?" style="text;html=1;align=center;verticalAlign=middle;whiteSpace=wrap;rounded=0;" parent="kR6YiugQy_GHJ83owY4M-6" vertex="1">
          <mxGeometry x="809.5" y="950" width="48" height="29" as="geometry" />
        </mxCell>
        <mxCell id="kR6YiugQy_GHJ83owY4M-105" value="Yes" style="text;html=1;align=center;verticalAlign=middle;whiteSpace=wrap;rounded=0;" parent="kR6YiugQy_GHJ83owY4M-6" vertex="1">
          <mxGeometry x="736.5" y="938" width="60" height="30" as="geometry" />
        </mxCell>
        <mxCell id="kR6YiugQy_GHJ83owY4M-182" style="edgeStyle=none;curved=1;rounded=0;orthogonalLoop=1;jettySize=auto;html=1;exitX=1;exitY=0.5;exitDx=0;exitDy=0;entryX=0;entryY=0.5;entryDx=0;entryDy=0;fontSize=12;startSize=8;endSize=8;" parent="kR6YiugQy_GHJ83owY4M-6" source="kR6YiugQy_GHJ83owY4M-134" target="kR6YiugQy_GHJ83owY4M-181" edge="1">
          <mxGeometry relative="1" as="geometry" />
        </mxCell>
        <mxCell id="kR6YiugQy_GHJ83owY4M-134" value="Start from&#xa;current&#xa;location?" style="rhombus;" parent="kR6YiugQy_GHJ83owY4M-6" vertex="1">
          <mxGeometry x="675.5" y="438" width="115" height="75" as="geometry" />
        </mxCell>
        <mxCell id="XiwXZa3TAM8R3-ZATZ7q-11" style="edgeStyle=orthogonalEdgeStyle;rounded=0;orthogonalLoop=1;jettySize=auto;html=1;exitX=0.5;exitY=1;exitDx=0;exitDy=0;entryX=0.5;entryY=0;entryDx=0;entryDy=0;fontSize=12;startSize=8;endSize=8;" edge="1" parent="kR6YiugQy_GHJ83owY4M-6" source="kR6YiugQy_GHJ83owY4M-169" target="kR6YiugQy_GHJ83owY4M-79">
          <mxGeometry relative="1" as="geometry" />
        </mxCell>
        <mxCell id="kR6YiugQy_GHJ83owY4M-169" value="Starting location is set to current location" style="html=1;align=center;verticalAlign=top;rounded=1;absoluteArcSize=1;arcSize=10;dashed=0;whiteSpace=wrap;" parent="kR6YiugQy_GHJ83owY4M-6" vertex="1">
          <mxGeometry x="564.5" y="603" width="140" height="40" as="geometry" />
        </mxCell>
        <mxCell id="kR6YiugQy_GHJ83owY4M-174" style="edgeStyle=orthogonalEdgeStyle;rounded=0;orthogonalLoop=1;jettySize=auto;html=1;exitX=0;exitY=0.5;exitDx=0;exitDy=0;entryX=0.5;entryY=0;entryDx=0;entryDy=0;fontSize=12;startSize=8;endSize=8;" parent="kR6YiugQy_GHJ83owY4M-6" source="kR6YiugQy_GHJ83owY4M-134" target="kR6YiugQy_GHJ83owY4M-169" edge="1">
          <mxGeometry relative="1" as="geometry" />
        </mxCell>
        <mxCell id="XiwXZa3TAM8R3-ZATZ7q-8" style="edgeStyle=orthogonalEdgeStyle;rounded=0;orthogonalLoop=1;jettySize=auto;html=1;exitX=0.5;exitY=1;exitDx=0;exitDy=0;entryX=0.5;entryY=0;entryDx=0;entryDy=0;fontSize=12;startSize=8;endSize=8;" edge="1" parent="kR6YiugQy_GHJ83owY4M-6" source="kR6YiugQy_GHJ83owY4M-176" target="kR6YiugQy_GHJ83owY4M-79">
          <mxGeometry relative="1" as="geometry" />
        </mxCell>
        <mxCell id="kR6YiugQy_GHJ83owY4M-176" value="Starting location is set to&lt;div&gt;selected location&lt;/div&gt;" style="html=1;align=center;verticalAlign=top;rounded=1;absoluteArcSize=1;arcSize=10;dashed=0;whiteSpace=wrap;" parent="kR6YiugQy_GHJ83owY4M-6" vertex="1">
          <mxGeometry x="820.75" y="603" width="140" height="40" as="geometry" />
        </mxCell>
        <mxCell id="kR6YiugQy_GHJ83owY4M-181" value="Starting location&lt;div&gt;is selected&lt;/div&gt;" style="html=1;align=center;verticalAlign=top;rounded=1;absoluteArcSize=1;arcSize=10;dashed=0;whiteSpace=wrap;" parent="kR6YiugQy_GHJ83owY4M-6" vertex="1">
          <mxGeometry x="839.25" y="455.5" width="104.5" height="40" as="geometry" />
        </mxCell>
        <mxCell id="kR6YiugQy_GHJ83owY4M-183" value="Yes" style="text;html=1;align=center;verticalAlign=middle;whiteSpace=wrap;rounded=0;" parent="kR6YiugQy_GHJ83owY4M-6" vertex="1">
          <mxGeometry x="636" y="450" width="60" height="30" as="geometry" />
        </mxCell>
        <mxCell id="kR6YiugQy_GHJ83owY4M-184" value="No" style="text;html=1;align=center;verticalAlign=middle;whiteSpace=wrap;rounded=0;" parent="kR6YiugQy_GHJ83owY4M-6" vertex="1">
          <mxGeometry x="766.5" y="450" width="60" height="30" as="geometry" />
        </mxCell>
        <mxCell id="kR6YiugQy_GHJ83owY4M-185" style="edgeStyle=none;curved=1;rounded=0;orthogonalLoop=1;jettySize=auto;html=1;exitX=0.5;exitY=1;exitDx=0;exitDy=0;fontSize=12;startSize=8;endSize=8;entryX=0.5;entryY=0;entryDx=0;entryDy=0;" parent="kR6YiugQy_GHJ83owY4M-6" source="kR6YiugQy_GHJ83owY4M-181" target="kR6YiugQy_GHJ83owY4M-176" edge="1">
          <mxGeometry relative="1" as="geometry">
            <mxPoint x="874.75" y="444" as="targetPoint" />
          </mxGeometry>
        </mxCell>
        <mxCell id="kR6YiugQy_GHJ83owY4M-190" style="edgeStyle=none;curved=1;rounded=0;orthogonalLoop=1;jettySize=auto;html=1;exitX=0.5;exitY=1;exitDx=0;exitDy=0;entryX=0.5;entryY=0;entryDx=0;entryDy=0;fontSize=12;startSize=8;endSize=8;" parent="kR6YiugQy_GHJ83owY4M-6" source="kR6YiugQy_GHJ83owY4M-189" target="kR6YiugQy_GHJ83owY4M-134" edge="1">
          <mxGeometry relative="1" as="geometry" />
        </mxCell>
        <mxCell id="aZ0iLrR2VgmDDzKvi7bb-2" style="edgeStyle=orthogonalEdgeStyle;rounded=0;orthogonalLoop=1;jettySize=auto;html=1;exitX=0.5;exitY=1;exitDx=0;exitDy=0;entryX=0.5;entryY=0;entryDx=0;entryDy=0;" parent="kR6YiugQy_GHJ83owY4M-6" source="kR6YiugQy_GHJ83owY4M-194" target="kR6YiugQy_GHJ83owY4M-196" edge="1">
          <mxGeometry relative="1" as="geometry" />
        </mxCell>
        <mxCell id="kR6YiugQy_GHJ83owY4M-194" value="Notify that no route is available" style="html=1;align=center;verticalAlign=top;rounded=1;absoluteArcSize=1;arcSize=10;dashed=0;whiteSpace=wrap;" parent="kR6YiugQy_GHJ83owY4M-6" vertex="1">
          <mxGeometry x="440.5" y="400" width="110" height="41" as="geometry" />
        </mxCell>
        <mxCell id="aZ0iLrR2VgmDDzKvi7bb-6" style="edgeStyle=orthogonalEdgeStyle;rounded=0;orthogonalLoop=1;jettySize=auto;html=1;entryX=0.5;entryY=0;entryDx=0;entryDy=0;" parent="kR6YiugQy_GHJ83owY4M-6" source="kR6YiugQy_GHJ83owY4M-196" target="kR6YiugQy_GHJ83owY4M-197" edge="1">
          <mxGeometry relative="1" as="geometry" />
        </mxCell>
        <mxCell id="kR6YiugQy_GHJ83owY4M-196" value="Suggest an alternative destination" style="html=1;align=center;verticalAlign=top;rounded=1;absoluteArcSize=1;arcSize=10;dashed=0;whiteSpace=wrap;" parent="kR6YiugQy_GHJ83owY4M-6" vertex="1">
          <mxGeometry x="440.5" y="458" width="111" height="54" as="geometry" />
        </mxCell>
        <mxCell id="NCyj7mP2332MZvZN0iQz-4" style="edgeStyle=orthogonalEdgeStyle;rounded=0;orthogonalLoop=1;jettySize=auto;html=1;exitX=0.5;exitY=1;exitDx=0;exitDy=0;entryX=0;entryY=0.5;entryDx=0;entryDy=0;" parent="kR6YiugQy_GHJ83owY4M-6" source="kR6YiugQy_GHJ83owY4M-197" target="kR6YiugQy_GHJ83owY4M-66" edge="1">
          <mxGeometry relative="1" as="geometry">
            <Array as="points">
              <mxPoint x="495.5" y="604" />
              <mxPoint x="412.5" y="604" />
              <mxPoint x="412.5" y="299" />
            </Array>
          </mxGeometry>
        </mxCell>
        <mxCell id="kR6YiugQy_GHJ83owY4M-197" value="Suggest different visiting times" style="html=1;align=center;verticalAlign=top;rounded=1;absoluteArcSize=1;arcSize=10;dashed=0;whiteSpace=wrap;" parent="kR6YiugQy_GHJ83owY4M-6" vertex="1">
          <mxGeometry x="440.5" y="543" width="110" height="41" as="geometry" />
        </mxCell>
        <mxCell id="kR6YiugQy_GHJ83owY4M-199" value="Yes" style="text;html=1;align=center;verticalAlign=middle;whiteSpace=wrap;rounded=0;" parent="kR6YiugQy_GHJ83owY4M-6" vertex="1">
          <mxGeometry x="716.5" y="397" width="60" height="30" as="geometry" />
        </mxCell>
        <mxCell id="kR6YiugQy_GHJ83owY4M-200" value="No" style="text;html=1;align=center;verticalAlign=middle;whiteSpace=wrap;rounded=0;" parent="kR6YiugQy_GHJ83owY4M-6" vertex="1">
          <mxGeometry x="644.5" y="341" width="60" height="30" as="geometry" />
        </mxCell>
        <mxCell id="kR6YiugQy_GHJ83owY4M-189" value="Destination&#xa;accessible?" style="rhombus;" parent="kR6YiugQy_GHJ83owY4M-6" vertex="1">
          <mxGeometry x="678.25" y="341" width="109.5" height="59" as="geometry" />
        </mxCell>
        <mxCell id="kR6YiugQy_GHJ83owY4M-202" style="edgeStyle=orthogonalEdgeStyle;rounded=0;orthogonalLoop=1;jettySize=auto;html=1;exitX=0;exitY=0.5;exitDx=0;exitDy=0;entryX=0.5;entryY=0;entryDx=0;entryDy=0;fontSize=12;startSize=8;endSize=8;" parent="kR6YiugQy_GHJ83owY4M-6" source="kR6YiugQy_GHJ83owY4M-189" target="kR6YiugQy_GHJ83owY4M-194" edge="1">
          <mxGeometry relative="1" as="geometry">
            <mxPoint x="600.5" y="432.5" as="targetPoint" />
          </mxGeometry>
        </mxCell>
        <mxCell id="vHgR3sTV_HwAixPCrvOR-33" value="Display&amp;nbsp;&lt;span style=&quot;background-color: transparent; color: light-dark(rgb(0, 0, 0), rgb(255, 255, 255));&quot;&gt;traffic&lt;/span&gt;&lt;div&gt;information&lt;/div&gt;" style="html=1;align=center;verticalAlign=top;rounded=1;absoluteArcSize=1;arcSize=10;dashed=0;whiteSpace=wrap;" parent="kR6YiugQy_GHJ83owY4M-6" vertex="1">
          <mxGeometry x="513.75" y="924" width="83.5" height="44" as="geometry" />
        </mxCell>
        <mxCell id="vHgR3sTV_HwAixPCrvOR-40" style="edgeStyle=orthogonalEdgeStyle;rounded=0;orthogonalLoop=1;jettySize=auto;html=1;exitX=1;exitY=1;exitDx=0;exitDy=0;entryX=0.5;entryY=0;entryDx=0;entryDy=0;" parent="kR6YiugQy_GHJ83owY4M-6" source="vHgR3sTV_HwAixPCrvOR-34" target="vHgR3sTV_HwAixPCrvOR-33" edge="1">
          <mxGeometry relative="1" as="geometry" />
        </mxCell>
        <mxCell id="XiwXZa3TAM8R3-ZATZ7q-12" style="edgeStyle=orthogonalEdgeStyle;rounded=0;orthogonalLoop=1;jettySize=auto;html=1;exitX=0;exitY=1;exitDx=0;exitDy=0;entryX=0.5;entryY=0;entryDx=0;entryDy=0;fontSize=12;startSize=8;endSize=8;" edge="1" parent="kR6YiugQy_GHJ83owY4M-6" source="vHgR3sTV_HwAixPCrvOR-34" target="kR6YiugQy_GHJ83owY4M-70">
          <mxGeometry relative="1" as="geometry">
            <Array as="points">
              <mxPoint x="482" y="849" />
            </Array>
          </mxGeometry>
        </mxCell>
        <mxCell id="vHgR3sTV_HwAixPCrvOR-34" value="Check&#xa;traffic?" style="rhombus;" parent="kR6YiugQy_GHJ83owY4M-6" vertex="1">
          <mxGeometry x="467" y="793" width="74" height="75" as="geometry" />
        </mxCell>
        <mxCell id="vHgR3sTV_HwAixPCrvOR-42" value="No" style="text;html=1;align=center;verticalAlign=middle;whiteSpace=wrap;rounded=0;" parent="kR6YiugQy_GHJ83owY4M-6" vertex="1">
          <mxGeometry x="440.5" y="850" width="60" height="30" as="geometry" />
        </mxCell>
        <mxCell id="vHgR3sTV_HwAixPCrvOR-43" value="Yes" style="text;html=1;align=center;verticalAlign=middle;whiteSpace=wrap;rounded=0;" parent="kR6YiugQy_GHJ83owY4M-6" vertex="1">
          <mxGeometry x="505" y="850" width="60" height="30" as="geometry" />
        </mxCell>
        <mxCell id="vHgR3sTV_HwAixPCrvOR-58" style="edgeStyle=orthogonalEdgeStyle;rounded=0;orthogonalLoop=1;jettySize=auto;html=1;exitX=0;exitY=1;exitDx=0;exitDy=0;entryX=0.5;entryY=0;entryDx=0;entryDy=0;" parent="kR6YiugQy_GHJ83owY4M-6" source="vHgR3sTV_HwAixPCrvOR-47" target="vHgR3sTV_HwAixPCrvOR-57" edge="1">
          <mxGeometry relative="1" as="geometry">
            <Array as="points">
              <mxPoint x="627" y="227" />
              <mxPoint x="295" y="227" />
            </Array>
          </mxGeometry>
        </mxCell>
        <mxCell id="XiwXZa3TAM8R3-ZATZ7q-13" style="edgeStyle=orthogonalEdgeStyle;rounded=0;orthogonalLoop=1;jettySize=auto;html=1;exitX=1;exitY=1;exitDx=0;exitDy=0;entryX=0.5;entryY=0;entryDx=0;entryDy=0;fontSize=12;startSize=8;endSize=8;" edge="1" parent="kR6YiugQy_GHJ83owY4M-6" source="vHgR3sTV_HwAixPCrvOR-47" target="kR6YiugQy_GHJ83owY4M-66">
          <mxGeometry relative="1" as="geometry">
            <Array as="points">
              <mxPoint x="687" y="227" />
              <mxPoint x="733" y="227" />
            </Array>
          </mxGeometry>
        </mxCell>
        <mxCell id="vHgR3sTV_HwAixPCrvOR-47" value="Personalized&#xa;route&#xa;generation?" style="rhombus;" parent="kR6YiugQy_GHJ83owY4M-6" vertex="1">
          <mxGeometry x="597.25" y="107" width="120" height="93" as="geometry" />
        </mxCell>
        <mxCell id="vHgR3sTV_HwAixPCrvOR-11" value="Background Loop" style="shape=folder;align=center;verticalAlign=middle;fontStyle=0;tabWidth=116;tabHeight=26;tabPosition=left;html=1;boundedLbl=1;labelInHeader=1;rounded=1;absoluteArcSize=1;arcSize=10;whiteSpace=wrap;" parent="kR6YiugQy_GHJ83owY4M-6" vertex="1">
          <mxGeometry x="671" y="1236" width="305" height="313" as="geometry" />
        </mxCell>
        <mxCell id="kR6YiugQy_GHJ83owY4M-123" value="No" style="text;html=1;align=center;verticalAlign=middle;whiteSpace=wrap;rounded=0;" parent="kR6YiugQy_GHJ83owY4M-6" vertex="1">
          <mxGeometry x="827.75" y="1343.5" width="60" height="30" as="geometry" />
        </mxCell>
        <mxCell id="vHgR3sTV_HwAixPCrvOR-30" style="edgeStyle=orthogonalEdgeStyle;rounded=0;orthogonalLoop=1;jettySize=auto;html=1;exitX=0.5;exitY=1;exitDx=0;exitDy=0;entryX=0.5;entryY=0;entryDx=0;entryDy=0;" parent="kR6YiugQy_GHJ83owY4M-6" source="kR6YiugQy_GHJ83owY4M-70" target="vHgR3sTV_HwAixPCrvOR-12" edge="1">
          <mxGeometry relative="1" as="geometry" />
        </mxCell>
        <mxCell id="kR6YiugQy_GHJ83owY4M-70" value="Calculate route to destination based on time and traffic" style="html=1;align=center;verticalAlign=top;rounded=1;absoluteArcSize=1;arcSize=10;dashed=0;whiteSpace=wrap;" parent="kR6YiugQy_GHJ83owY4M-6" vertex="1">
          <mxGeometry x="427" y="1166" width="110" height="54" as="geometry" />
        </mxCell>
        <mxCell id="kR6YiugQy_GHJ83owY4M-77" style="edgeStyle=none;curved=1;rounded=0;orthogonalLoop=1;jettySize=auto;html=1;exitX=0.5;exitY=1;exitDx=0;exitDy=0;entryX=0.5;entryY=0;entryDx=0;entryDy=0;fontSize=12;startSize=8;endSize=8;" parent="kR6YiugQy_GHJ83owY4M-6" source="kR6YiugQy_GHJ83owY4M-74" target="kR6YiugQy_GHJ83owY4M-75" edge="1">
          <mxGeometry relative="1" as="geometry" />
        </mxCell>
        <mxCell id="kR6YiugQy_GHJ83owY4M-74" value="Calculate arival&lt;div&gt;time&lt;/div&gt;" style="html=1;align=center;verticalAlign=top;rounded=1;absoluteArcSize=1;arcSize=10;dashed=0;whiteSpace=wrap;" parent="kR6YiugQy_GHJ83owY4M-6" vertex="1">
          <mxGeometry x="427" y="1473" width="110" height="40" as="geometry" />
        </mxCell>
        <mxCell id="NCyj7mP2332MZvZN0iQz-6" style="edgeStyle=orthogonalEdgeStyle;rounded=0;orthogonalLoop=1;jettySize=auto;html=1;exitX=0.5;exitY=1;exitDx=0;exitDy=0;entryX=0.5;entryY=0;entryDx=0;entryDy=0;" parent="kR6YiugQy_GHJ83owY4M-6" source="kR6YiugQy_GHJ83owY4M-75" target="kR6YiugQy_GHJ83owY4M-68" edge="1">
          <mxGeometry relative="1" as="geometry" />
        </mxCell>
        <mxCell id="kR6YiugQy_GHJ83owY4M-75" value="Display calculated route and arrival time" style="html=1;align=center;verticalAlign=top;rounded=1;absoluteArcSize=1;arcSize=10;dashed=0;whiteSpace=wrap;" parent="kR6YiugQy_GHJ83owY4M-6" vertex="1">
          <mxGeometry x="424" y="1557" width="117" height="42" as="geometry" />
        </mxCell>
        <mxCell id="NCyj7mP2332MZvZN0iQz-5" style="edgeStyle=orthogonalEdgeStyle;rounded=0;orthogonalLoop=1;jettySize=auto;html=1;exitX=0;exitY=0.5;exitDx=0;exitDy=0;entryX=1;entryY=0.5;entryDx=0;entryDy=0;curved=1;" parent="kR6YiugQy_GHJ83owY4M-6" source="kR6YiugQy_GHJ83owY4M-109" target="vHgR3sTV_HwAixPCrvOR-34" edge="1">
          <mxGeometry relative="1" as="geometry" />
        </mxCell>
        <mxCell id="kR6YiugQy_GHJ83owY4M-109" value="Suggest the optimal order to visit destinations based on time, distance and&lt;div&gt;overcrowdedness&lt;/div&gt;" style="html=1;align=center;verticalAlign=top;rounded=1;absoluteArcSize=1;arcSize=10;dashed=0;whiteSpace=wrap;" parent="kR6YiugQy_GHJ83owY4M-6" vertex="1">
          <mxGeometry x="772.5" y="1107" width="122" height="90" as="geometry" />
        </mxCell>
        <mxCell id="kR6YiugQy_GHJ83owY4M-131" style="edgeStyle=none;curved=1;rounded=0;orthogonalLoop=1;jettySize=auto;html=1;exitX=0.5;exitY=1;exitDx=0;exitDy=0;entryX=0.5;entryY=0;entryDx=0;entryDy=0;fontSize=12;startSize=8;endSize=8;" parent="kR6YiugQy_GHJ83owY4M-6" source="kR6YiugQy_GHJ83owY4M-117" target="kR6YiugQy_GHJ83owY4M-130" edge="1">
          <mxGeometry relative="1" as="geometry" />
        </mxCell>
        <mxCell id="kR6YiugQy_GHJ83owY4M-117" value="Cancel&#xa;Navigation?" style="rhombus;" parent="kR6YiugQy_GHJ83owY4M-6" vertex="1">
          <mxGeometry x="864.25" y="1328" width="91" height="87" as="geometry" />
        </mxCell>
        <mxCell id="kR6YiugQy_GHJ83owY4M-128" value="Yes" style="text;html=1;align=center;verticalAlign=middle;whiteSpace=wrap;rounded=0;" parent="kR6YiugQy_GHJ83owY4M-6" vertex="1">
          <mxGeometry x="893.25" y="1416.5" width="60" height="30" as="geometry" />
        </mxCell>
        <mxCell id="kR6YiugQy_GHJ83owY4M-129" style="edgeStyle=orthogonalEdgeStyle;rounded=0;orthogonalLoop=1;jettySize=auto;html=1;exitX=0;exitY=0.5;exitDx=0;exitDy=0;entryX=0.5;entryY=0;entryDx=0;entryDy=0;fontSize=12;startSize=8;endSize=8;" parent="kR6YiugQy_GHJ83owY4M-6" source="kR6YiugQy_GHJ83owY4M-117" target="kR6YiugQy_GHJ83owY4M-117" edge="1">
          <mxGeometry relative="1" as="geometry">
            <Array as="points">
              <mxPoint x="844.75" y="1371.5" />
              <mxPoint x="844.75" y="1307.5" />
              <mxPoint x="909.75" y="1307.5" />
            </Array>
          </mxGeometry>
        </mxCell>
        <mxCell id="kR6YiugQy_GHJ83owY4M-130" value="Route is removed from the map" style="html=1;align=center;verticalAlign=top;rounded=1;absoluteArcSize=1;arcSize=10;dashed=0;whiteSpace=wrap;" parent="kR6YiugQy_GHJ83owY4M-6" vertex="1">
          <mxGeometry x="859.25" y="1453.5" width="101" height="40" as="geometry" />
        </mxCell>
        <mxCell id="vHgR3sTV_HwAixPCrvOR-2" style="edgeStyle=none;curved=1;rounded=0;orthogonalLoop=1;jettySize=auto;html=1;exitX=0.5;exitY=1;exitDx=0;exitDy=0;entryX=0.5;entryY=0;entryDx=0;entryDy=0;fontSize=12;startSize=8;endSize=8;" parent="kR6YiugQy_GHJ83owY4M-6" source="vHgR3sTV_HwAixPCrvOR-3" target="vHgR3sTV_HwAixPCrvOR-6" edge="1">
          <mxGeometry relative="1" as="geometry" />
        </mxCell>
        <mxCell id="vHgR3sTV_HwAixPCrvOR-1" value="No" style="text;html=1;align=center;verticalAlign=middle;whiteSpace=wrap;rounded=0;" parent="kR6YiugQy_GHJ83owY4M-6" vertex="1">
          <mxGeometry x="389" y="1249" width="60" height="30" as="geometry" />
        </mxCell>
        <mxCell id="vHgR3sTV_HwAixPCrvOR-10" style="edgeStyle=orthogonalEdgeStyle;rounded=0;orthogonalLoop=1;jettySize=auto;html=1;exitX=0;exitY=0.5;exitDx=0;exitDy=0;entryX=0;entryY=0.5;entryDx=0;entryDy=0;" parent="kR6YiugQy_GHJ83owY4M-6" source="vHgR3sTV_HwAixPCrvOR-3" target="vHgR3sTV_HwAixPCrvOR-8" edge="1">
          <mxGeometry relative="1" as="geometry" />
        </mxCell>
        <mxCell id="vHgR3sTV_HwAixPCrvOR-3" value="GPS Signal&#xa;Lost?" style="rhombus;" parent="kR6YiugQy_GHJ83owY4M-6" vertex="1">
          <mxGeometry x="714" y="1346.5" width="91" height="87" as="geometry" />
        </mxCell>
        <mxCell id="vHgR3sTV_HwAixPCrvOR-4" value="Yes" style="text;html=1;align=center;verticalAlign=middle;whiteSpace=wrap;rounded=0;" parent="kR6YiugQy_GHJ83owY4M-6" vertex="1">
          <mxGeometry x="743" y="1435" width="60" height="30" as="geometry" />
        </mxCell>
        <mxCell id="vHgR3sTV_HwAixPCrvOR-7" style="edgeStyle=orthogonalEdgeStyle;rounded=0;orthogonalLoop=1;jettySize=auto;html=1;exitX=1;exitY=0.5;exitDx=0;exitDy=0;entryX=1;entryY=0.5;entryDx=0;entryDy=0;" parent="kR6YiugQy_GHJ83owY4M-6" source="vHgR3sTV_HwAixPCrvOR-6" target="vHgR3sTV_HwAixPCrvOR-3" edge="1">
          <mxGeometry relative="1" as="geometry" />
        </mxCell>
        <mxCell id="vHgR3sTV_HwAixPCrvOR-6" value="Pause&lt;div&gt;navigation&lt;/div&gt;" style="html=1;align=center;verticalAlign=top;rounded=1;absoluteArcSize=1;arcSize=10;dashed=0;whiteSpace=wrap;" parent="kR6YiugQy_GHJ83owY4M-6" vertex="1">
          <mxGeometry x="709" y="1472" width="101" height="40" as="geometry" />
        </mxCell>
        <mxCell id="vHgR3sTV_HwAixPCrvOR-9" style="edgeStyle=orthogonalEdgeStyle;rounded=0;orthogonalLoop=1;jettySize=auto;html=1;exitX=0.5;exitY=1;exitDx=0;exitDy=0;entryX=0.5;entryY=0;entryDx=0;entryDy=0;" parent="kR6YiugQy_GHJ83owY4M-6" source="vHgR3sTV_HwAixPCrvOR-8" target="vHgR3sTV_HwAixPCrvOR-3" edge="1">
          <mxGeometry relative="1" as="geometry" />
        </mxCell>
        <mxCell id="vHgR3sTV_HwAixPCrvOR-8" value="Continue&lt;div&gt;navigation&lt;/div&gt;" style="html=1;align=center;verticalAlign=top;rounded=1;absoluteArcSize=1;arcSize=10;dashed=0;whiteSpace=wrap;" parent="kR6YiugQy_GHJ83owY4M-6" vertex="1">
          <mxGeometry x="709" y="1281" width="101" height="39" as="geometry" />
        </mxCell>
        <mxCell id="vHgR3sTV_HwAixPCrvOR-13" value="&amp;nbsp; &amp;nbsp;&amp;lt; 5 secs" style="html=1;shape=mxgraph.infographic.ribbonSimple;notch1=20;notch2=0;align=center;verticalAlign=middle;fontSize=14;fontStyle=0;fillColor=#FFFFFF;flipH=0;spacingRight=0;spacingLeft=14;whiteSpace=wrap;" parent="kR6YiugQy_GHJ83owY4M-6" vertex="1">
          <mxGeometry x="504.5" y="1256.5" width="82" height="31" as="geometry" />
        </mxCell>
        <mxCell id="vHgR3sTV_HwAixPCrvOR-14" style="edgeStyle=orthogonalEdgeStyle;rounded=0;orthogonalLoop=1;jettySize=auto;html=1;exitX=0.5;exitY=1;exitDx=0;exitDy=0;entryX=0.5;entryY=0;entryDx=0;entryDy=0;" parent="kR6YiugQy_GHJ83owY4M-6" source="vHgR3sTV_HwAixPCrvOR-12" target="kR6YiugQy_GHJ83owY4M-74" edge="1">
          <mxGeometry relative="1" as="geometry" />
        </mxCell>
        <mxCell id="vHgR3sTV_HwAixPCrvOR-19" style="edgeStyle=orthogonalEdgeStyle;rounded=0;orthogonalLoop=1;jettySize=auto;html=1;exitX=0;exitY=0.5;exitDx=0;exitDy=0;entryX=0.5;entryY=0;entryDx=0;entryDy=0;" parent="kR6YiugQy_GHJ83owY4M-6" source="vHgR3sTV_HwAixPCrvOR-12" target="vHgR3sTV_HwAixPCrvOR-16" edge="1">
          <mxGeometry relative="1" as="geometry" />
        </mxCell>
        <mxCell id="vHgR3sTV_HwAixPCrvOR-12" value="Succesful&lt;div&gt;calculation?&lt;/div&gt;" style="rhombus;whiteSpace=wrap;html=1;" parent="kR6YiugQy_GHJ83owY4M-6" vertex="1">
          <mxGeometry x="436" y="1232" width="92" height="80" as="geometry" />
        </mxCell>
        <mxCell id="vHgR3sTV_HwAixPCrvOR-15" value="Yes" style="text;html=1;align=center;verticalAlign=middle;whiteSpace=wrap;rounded=0;" parent="kR6YiugQy_GHJ83owY4M-6" vertex="1">
          <mxGeometry x="469" y="1310" width="60" height="30" as="geometry" />
        </mxCell>
        <mxCell id="vHgR3sTV_HwAixPCrvOR-18" style="edgeStyle=orthogonalEdgeStyle;rounded=0;orthogonalLoop=1;jettySize=auto;html=1;exitX=0.5;exitY=1;exitDx=0;exitDy=0;entryX=0.5;entryY=0;entryDx=0;entryDy=0;" parent="kR6YiugQy_GHJ83owY4M-6" source="vHgR3sTV_HwAixPCrvOR-16" target="vHgR3sTV_HwAixPCrvOR-17" edge="1">
          <mxGeometry relative="1" as="geometry" />
        </mxCell>
        <mxCell id="vHgR3sTV_HwAixPCrvOR-16" value="Display error message" style="html=1;align=center;verticalAlign=top;rounded=1;absoluteArcSize=1;arcSize=10;dashed=0;whiteSpace=wrap;" parent="kR6YiugQy_GHJ83owY4M-6" vertex="1">
          <mxGeometry x="307.5" y="1294.5" width="101" height="39" as="geometry" />
        </mxCell>
        <mxCell id="vHgR3sTV_HwAixPCrvOR-46" style="edgeStyle=orthogonalEdgeStyle;rounded=0;orthogonalLoop=1;jettySize=auto;html=1;exitX=0.5;exitY=1;exitDx=0;exitDy=0;entryX=0.5;entryY=0;entryDx=0;entryDy=0;" parent="kR6YiugQy_GHJ83owY4M-6" source="vHgR3sTV_HwAixPCrvOR-17" target="vHgR3sTV_HwAixPCrvOR-22" edge="1">
          <mxGeometry relative="1" as="geometry" />
        </mxCell>
        <mxCell id="vHgR3sTV_HwAixPCrvOR-17" value="Suggest&lt;div&gt;troubleshooting steps&lt;/div&gt;" style="html=1;align=center;verticalAlign=top;rounded=1;absoluteArcSize=1;arcSize=10;dashed=0;whiteSpace=wrap;" parent="kR6YiugQy_GHJ83owY4M-6" vertex="1">
          <mxGeometry x="308" y="1352" width="100.5" height="55" as="geometry" />
        </mxCell>
        <mxCell id="vHgR3sTV_HwAixPCrvOR-25" style="edgeStyle=orthogonalEdgeStyle;rounded=0;orthogonalLoop=1;jettySize=auto;html=1;exitX=0.5;exitY=1;exitDx=0;exitDy=0;entryX=0.25;entryY=0;entryDx=0;entryDy=0;" parent="kR6YiugQy_GHJ83owY4M-6" source="vHgR3sTV_HwAixPCrvOR-22" target="kR6YiugQy_GHJ83owY4M-70" edge="1">
          <mxGeometry relative="1" as="geometry">
            <Array as="points">
              <mxPoint x="362" y="1488" />
              <mxPoint x="286" y="1488" />
              <mxPoint x="286" y="1085" />
              <mxPoint x="455" y="1085" />
            </Array>
          </mxGeometry>
        </mxCell>
        <mxCell id="vHgR3sTV_HwAixPCrvOR-22" value="Display &quot;Try again&quot; message" style="html=1;align=center;verticalAlign=top;rounded=1;absoluteArcSize=1;arcSize=10;dashed=0;whiteSpace=wrap;" parent="kR6YiugQy_GHJ83owY4M-6" vertex="1">
          <mxGeometry x="311" y="1426" width="101" height="39" as="geometry" />
        </mxCell>
        <mxCell id="vHgR3sTV_HwAixPCrvOR-27" value="" style="ellipse;html=1;shape=endState;fillColor=strokeColor;" parent="kR6YiugQy_GHJ83owY4M-6" vertex="1">
          <mxGeometry x="467.5" y="1797" width="30" height="30" as="geometry" />
        </mxCell>
        <mxCell id="vHgR3sTV_HwAixPCrvOR-62" style="edgeStyle=orthogonalEdgeStyle;rounded=0;orthogonalLoop=1;jettySize=auto;html=1;exitX=1;exitY=0.5;exitDx=0;exitDy=0;" parent="kR6YiugQy_GHJ83owY4M-6" source="vHgR3sTV_HwAixPCrvOR-57" target="vHgR3sTV_HwAixPCrvOR-60" edge="1">
          <mxGeometry relative="1" as="geometry" />
        </mxCell>
        <mxCell id="vHgR3sTV_HwAixPCrvOR-69" style="edgeStyle=orthogonalEdgeStyle;rounded=0;orthogonalLoop=1;jettySize=auto;html=1;exitX=0;exitY=0.5;exitDx=0;exitDy=0;" parent="kR6YiugQy_GHJ83owY4M-6" source="vHgR3sTV_HwAixPCrvOR-57" target="vHgR3sTV_HwAixPCrvOR-66" edge="1">
          <mxGeometry relative="1" as="geometry" />
        </mxCell>
        <mxCell id="vHgR3sTV_HwAixPCrvOR-57" value="Profile&#xa;preferences&#xa;exist?" style="rhombus;" parent="kR6YiugQy_GHJ83owY4M-6" vertex="1">
          <mxGeometry x="250" y="663" width="90.75" height="86" as="geometry" />
        </mxCell>
        <mxCell id="vHgR3sTV_HwAixPCrvOR-65" style="edgeStyle=orthogonalEdgeStyle;rounded=0;orthogonalLoop=1;jettySize=auto;html=1;exitX=0.5;exitY=1;exitDx=0;exitDy=0;" parent="kR6YiugQy_GHJ83owY4M-6" source="vHgR3sTV_HwAixPCrvOR-60" target="kR6YiugQy_GHJ83owY4M-70" edge="1">
          <mxGeometry relative="1" as="geometry" />
        </mxCell>
        <mxCell id="vHgR3sTV_HwAixPCrvOR-60" value="Generate route&lt;div&gt;based&amp;nbsp;&lt;span style=&quot;background-color: transparent; color: light-dark(rgb(0, 0, 0), rgb(255, 255, 255));&quot;&gt;on user&lt;/span&gt;&lt;/div&gt;&lt;div&gt;&lt;span style=&quot;background-color: transparent; color: light-dark(rgb(0, 0, 0), rgb(255, 255, 255)); text-wrap-mode: nowrap;&quot;&gt;preferences&lt;/span&gt;&lt;/div&gt;" style="html=1;align=center;verticalAlign=top;rounded=1;absoluteArcSize=1;arcSize=10;dashed=0;whiteSpace=wrap;" parent="kR6YiugQy_GHJ83owY4M-6" vertex="1">
          <mxGeometry x="326" y="789" width="94" height="53" as="geometry" />
        </mxCell>
        <mxCell id="vHgR3sTV_HwAixPCrvOR-61" value="Yes" style="text;html=1;align=center;verticalAlign=middle;whiteSpace=wrap;rounded=0;" parent="kR6YiugQy_GHJ83owY4M-6" vertex="1">
          <mxGeometry x="581" y="170" width="60" height="30" as="geometry" />
        </mxCell>
        <mxCell id="vHgR3sTV_HwAixPCrvOR-63" value="Yes" style="text;html=1;align=center;verticalAlign=middle;whiteSpace=wrap;rounded=0;" parent="kR6YiugQy_GHJ83owY4M-6" vertex="1">
          <mxGeometry x="323" y="683" width="60" height="30" as="geometry" />
        </mxCell>
        <mxCell id="vHgR3sTV_HwAixPCrvOR-64" style="edgeStyle=orthogonalEdgeStyle;rounded=0;orthogonalLoop=1;jettySize=auto;html=1;exitX=0.5;exitY=1;exitDx=0;exitDy=0;entryX=0.75;entryY=0;entryDx=0;entryDy=0;" parent="kR6YiugQy_GHJ83owY4M-6" source="vHgR3sTV_HwAixPCrvOR-33" target="kR6YiugQy_GHJ83owY4M-70" edge="1">
          <mxGeometry relative="1" as="geometry">
            <Array as="points">
              <mxPoint x="556" y="1086" />
              <mxPoint x="510" y="1086" />
            </Array>
          </mxGeometry>
        </mxCell>
        <mxCell id="vHgR3sTV_HwAixPCrvOR-68" style="edgeStyle=orthogonalEdgeStyle;rounded=0;orthogonalLoop=1;jettySize=auto;html=1;exitX=0.5;exitY=1;exitDx=0;exitDy=0;entryX=0.5;entryY=0;entryDx=0;entryDy=0;" parent="kR6YiugQy_GHJ83owY4M-6" source="vHgR3sTV_HwAixPCrvOR-66" target="vHgR3sTV_HwAixPCrvOR-67" edge="1">
          <mxGeometry relative="1" as="geometry" />
        </mxCell>
        <mxCell id="vHgR3sTV_HwAixPCrvOR-66" value="No personalized&lt;div&gt;route can be&lt;/div&gt;&lt;div&gt;generated&lt;/div&gt;" style="html=1;align=center;verticalAlign=top;rounded=1;absoluteArcSize=1;arcSize=10;dashed=0;whiteSpace=wrap;" parent="kR6YiugQy_GHJ83owY4M-6" vertex="1">
          <mxGeometry x="181" y="789" width="94" height="53" as="geometry" />
        </mxCell>
        <mxCell id="XiwXZa3TAM8R3-ZATZ7q-16" style="edgeStyle=orthogonalEdgeStyle;rounded=0;orthogonalLoop=1;jettySize=auto;html=1;exitX=0.5;exitY=1;exitDx=0;exitDy=0;entryX=0;entryY=0.5;entryDx=0;entryDy=0;fontSize=12;startSize=8;endSize=8;" edge="1" parent="kR6YiugQy_GHJ83owY4M-6" source="vHgR3sTV_HwAixPCrvOR-67" target="kR6YiugQy_GHJ83owY4M-37">
          <mxGeometry relative="1" as="geometry">
            <Array as="points">
              <mxPoint x="228" y="931" />
              <mxPoint x="142" y="931" />
              <mxPoint x="142" y="59" />
            </Array>
          </mxGeometry>
        </mxCell>
        <mxCell id="vHgR3sTV_HwAixPCrvOR-67" value="Suggest user to update profile&lt;div&gt;&lt;span style=&quot;text-wrap-mode: nowrap;&quot;&gt;preferences&lt;/span&gt;&lt;/div&gt;" style="html=1;align=center;verticalAlign=top;rounded=1;absoluteArcSize=1;arcSize=10;dashed=0;whiteSpace=wrap;" parent="kR6YiugQy_GHJ83owY4M-6" vertex="1">
          <mxGeometry x="181" y="858" width="94" height="53" as="geometry" />
        </mxCell>
        <mxCell id="vHgR3sTV_HwAixPCrvOR-73" value="No" style="text;html=1;align=center;verticalAlign=middle;whiteSpace=wrap;rounded=0;" parent="kR6YiugQy_GHJ83owY4M-6" vertex="1">
          <mxGeometry x="212" y="685" width="60" height="30" as="geometry" />
        </mxCell>
        <mxCell id="NCyj7mP2332MZvZN0iQz-7" value="No" style="text;html=1;align=center;verticalAlign=middle;whiteSpace=wrap;rounded=0;" parent="kR6YiugQy_GHJ83owY4M-6" vertex="1">
          <mxGeometry x="676.5" y="1364.5" width="60" height="30" as="geometry" />
        </mxCell>
        <mxCell id="kR6YiugQy_GHJ83owY4M-127" style="edgeStyle=orthogonalEdgeStyle;rounded=0;orthogonalLoop=1;jettySize=auto;html=1;exitX=1;exitY=0.5;exitDx=0;exitDy=0;fontSize=12;startSize=8;endSize=8;entryX=1;entryY=0.5;entryDx=0;entryDy=0;" parent="kR6YiugQy_GHJ83owY4M-6" source="kR6YiugQy_GHJ83owY4M-130" target="kR6YiugQy_GHJ83owY4M-37" edge="1">
          <mxGeometry relative="1" as="geometry">
            <Array as="points">
              <mxPoint x="1042" y="1473" />
              <mxPoint x="1042" y="59" />
            </Array>
          </mxGeometry>
        </mxCell>
        <mxCell id="XiwXZa3TAM8R3-ZATZ7q-3" style="edgeStyle=none;curved=1;rounded=0;orthogonalLoop=1;jettySize=auto;html=1;exitX=0.5;exitY=1;exitDx=0;exitDy=0;entryX=0.5;entryY=0;entryDx=0;entryDy=0;fontSize=12;startSize=8;endSize=8;" edge="1" parent="kR6YiugQy_GHJ83owY4M-6" source="XiwXZa3TAM8R3-ZATZ7q-1" target="vHgR3sTV_HwAixPCrvOR-27">
          <mxGeometry relative="1" as="geometry" />
        </mxCell>
        <mxCell id="XiwXZa3TAM8R3-ZATZ7q-1" value="Display Directions&lt;div&gt;&lt;br&gt;&lt;/div&gt;" style="html=1;align=center;verticalAlign=top;rounded=1;absoluteArcSize=1;arcSize=10;dashed=0;whiteSpace=wrap;" vertex="1" parent="kR6YiugQy_GHJ83owY4M-6">
          <mxGeometry x="412.5" y="1717" width="140" height="28" as="geometry" />
        </mxCell>
        <mxCell id="XiwXZa3TAM8R3-ZATZ7q-7" value="No" style="text;html=1;align=center;verticalAlign=middle;whiteSpace=wrap;rounded=0;" vertex="1" parent="kR6YiugQy_GHJ83owY4M-6">
          <mxGeometry x="671" y="170" width="60" height="30" as="geometry" />
        </mxCell>
      </root>
    </mxGraphModel>
  </diagram>
</mxfile>
